# xmcd CD database file
#
# Track frame offsets:
#	150
#	36752
#	73750
#	100946
#	142405
#	179157
#	200158
#	226019
#	252742
#	279622
#	309010
#	339258
#
# Disc length: 4719 seconds
#
# Revision: 0
# Processed by: cddbd v1.5.2PL0 Copyright (c) Steve Scherf et al.
# Submitted via: CDex 1.51
#
DISCID=ba126d0c
DTITLE=Sonny Rollins - 4 Originals - CD 1
DYEAR=2010
DGENRE=Jazz
TTITLE0=Old Devil Moon - (A Night At The Village Vanguard)
TTITLE1=Softly As In A Morning Sunrise
TTITLE2=Strivers Row
TTITLE3=Sonnymoon For Two
TTITLE4=A Night In Tunisia
TTITLE5=I Cant't Get Started
TTITLE6=Tune Up - (Newk's Time)
TTITLE7=Asiatic Raes
TTITLE8=Wonderful ! Wonderful !
TTITLE9=The surrey With The Fringe On Top
TTITLE10=Blues For Phillyjoe
TTITLE11=Namely You
EXTD=YEAR: 2010
EXTT0=
EXTT1=
EXTT2=
EXTT3=
EXTT4=
EXTT5=
EXTT6=
EXTT7=
EXTT8=
EXTT9=
EXTT10=
EXTT11=
PLAYORDER=
